<?xml version="1.0" encoding="UTF-8" standalone="no"?>
<svg width="265px" height="43px" viewBox="0 0 265 43" version="1.1" xmlns="http://www.w3.org/2000/svg" xmlns:xlink="http://www.w3.org/1999/xlink" xmlns:sketch="http://www.bohemiancoding.com/sketch/ns">
    <title>Slice 1</title>
    <description>Created with Sketch (http://www.bohemiancoding.com/sketch)</description>
    <defs></defs>
    <g id="Page-1" stroke="none" stroke-width="1" fill="none" fill-rule="evenodd" sketch:type="MSPage">
        <g id="viewpoint" sketch:type="MSLayerGroup" transform="translate(1.000000, 1.000000)" fill="#00A8E1">
            <path d="M5.2,34.9 L23.5,34.5 L23.5,29 L11.3,28.7 L11.3,28.7 C10.7,28.7 10.3,28.2 10.3,27.6 L10.3,23.5 L5.2,23.6 L5.2,34.9 L5.2,34.9 Z" id="Shape" sketch:type="MSShapeGroup"></path>
            <path d="M-0.3,2.3 L-0.3,22 L10.2,21.8 L10.2,7.7 C10.2,7.1 10.7,6.6 11.3,6.6 L18,6.5 L18,2.7 L-0.3,2.3 L-0.3,2.3 Z" id="Shape" sketch:type="MSShapeGroup"></path>
            <path d="M11.9,8.3 L11.9,27 L30.6,27.4 L30.6,7.9 L11.9,8.3 Z" id="Shape" sketch:type="MSShapeGroup"></path>
            <path d="M43.3,7.4 L49.1,7.4 L56.3,26 L63.5,7.4 L69.3,7.4 L59.2,32.2 L53.4,32.2 L43.3,7.4 L43.3,7.4 Z" id="Shape" sketch:type="MSShapeGroup"></path>
            <path d="M74.5,3.6 C74.1,3.1 73.8,2.6 73.8,2 C73.8,1.4 74,0.8 74.5,0.4 C74.9,-0.1 75.5,-0.3 76.1,-0.3 C76.7,-0.3 77.3,-0.1 77.7,0.4 C78.1,0.9 78.4,1.4 78.4,2 C78.4,2.6 78.2,3.2 77.7,3.6 C77.3,4.1 76.7,4.3 76.1,4.3 C75.5,4.3 74.9,4.1 74.5,3.6 L74.5,3.6 Z M73.3,32.1 L73.3,7.3 L78.7,7.3 L78.7,32.1 L73.3,32.1 L73.3,32.1 Z" id="Shape" sketch:type="MSShapeGroup"></path>
            <path d="M83.6,19.7 C83.6,17.3 84.1,15.1 85.2,13.2 C86.3,11.2 87.8,9.6 89.7,8.5 C91.6,7.3 93.8,6.8 96.2,6.8 C99.9,6.8 102.8,8.1 105,10.6 C107.2,13.1 108.3,16.4 108.3,20.3 L108.3,21.6 L89.2,21.6 C89.4,23.5 90.2,25.2 91.6,26.5 C93,27.8 94.8,28.5 97,28.5 C98.3,28.5 99.6,28.2 100.8,27.8 C102.1,27.3 103.2,26.6 104,25.7 L106.5,29.2 C105.2,30.4 103.7,31.3 102,31.9 C100.3,32.5 98.4,32.8 96.4,32.8 C92.6,32.8 89.5,31.6 87.1,29.2 C84.9,26.8 83.6,23.6 83.6,19.7 L83.6,19.7 Z M89.2,17.7 L103.2,17.7 C103.2,16.9 103,16.2 102.7,15.4 C102.4,14.7 102,14 101.4,13.3 C100.9,12.6 100.1,12.1 99.2,11.7 C98.3,11.3 97.2,11.1 96.1,11.1 C94,11.1 92.3,11.8 91.1,13.1 C90,14.4 89.4,16 89.2,17.7 L89.2,17.7 Z" id="Shape" sketch:type="MSShapeGroup"></path>
            <path d="M110.5,7.4 L116.1,7.4 L121.4,25.5 L127.4,7.4 L132.1,7.4 L138,25.4 L143.2,7.4 L148.8,7.4 L141.1,32.2 L135.4,32.2 L129.7,14.4 L124.1,32.2 L118.2,32.2 L110.5,7.4 L110.5,7.4 Z" id="Shape" sketch:type="MSShapeGroup"></path>
            <path d="M152.5,41.6 L152.5,7.4 L157.9,7.4 L157.9,10.8 C158.8,9.5 160,8.6 161.4,7.9 C162.8,7.2 164.3,6.8 165.9,6.8 C169.2,6.8 171.8,8 173.8,10.3 C175.8,12.6 176.8,15.8 176.8,19.8 C176.8,23.8 175.8,27 173.8,29.3 C171.8,31.6 169.1,32.8 165.9,32.8 C162.7,32.8 160.1,31.4 157.9,28.7 L157.9,41.6 L152.5,41.6 L152.5,41.6 Z M157.9,24.6 C158.5,25.5 159.4,26.4 160.6,27 C161.8,27.6 163,28 164.2,28 C166.3,28 168,27.2 169.3,25.7 C170.6,24.2 171.2,22.2 171.2,19.7 C171.2,17.2 170.5,15.3 169.3,13.8 C168,12.3 166.3,11.5 164.2,11.5 C163,11.5 161.7,11.8 160.6,12.4 C159.4,13 158.5,13.8 157.9,14.7 L157.9,24.6 L157.9,24.6 Z" id="Shape" sketch:type="MSShapeGroup"></path>
            <path d="M179.9,19.7 C179.9,17.3 180.4,15.1 181.4,13.2 C182.4,11.3 183.9,9.7 185.8,8.5 C187.7,7.3 190,6.7 192.6,6.7 C195.2,6.7 197.4,7.3 199.4,8.5 C201.4,9.7 202.8,11.2 203.9,13.2 C204.9,15.2 205.4,17.3 205.4,19.7 C205.4,21.5 205.1,23.1 204.5,24.7 C203.9,26.3 203.1,27.7 202,28.9 C200.9,30.1 199.6,31 198,31.7 C196.4,32.4 194.6,32.8 192.7,32.8 C190.8,32.8 189,32.5 187.4,31.7 C185.8,31 184.5,30.1 183.4,28.9 C182.3,27.7 181.5,26.3 180.9,24.7 C180.1,23.2 179.9,21.5 179.9,19.7 L179.9,19.7 Z M185.4,19.7 C185.4,22 186.1,24 187.3,25.6 C188.6,27.2 190.3,28 192.5,28 C194.7,28 196.5,27.2 197.7,25.6 C199,24 199.6,22 199.6,19.7 C199.6,17.4 199,15.5 197.7,13.9 C196.4,12.3 194.7,11.5 192.5,11.5 C190.3,11.5 188.6,12.3 187.3,13.9 C186,15.5 185.4,17.4 185.4,19.7 L185.4,19.7 Z" id="Shape" sketch:type="MSShapeGroup"></path>
            <path d="M211.1,3.6 C210.7,3.1 210.4,2.6 210.4,2 C210.4,1.4 210.6,0.8 211.1,0.4 C211.5,-0.1 212.1,-0.3 212.7,-0.3 C213.3,-0.3 213.9,-0.1 214.3,0.4 C214.7,0.9 215,1.4 215,2 C215,2.6 214.8,3.2 214.3,3.6 C213.9,4.1 213.3,4.3 212.7,4.3 C212,4.3 211.5,4.1 211.1,3.6 L211.1,3.6 Z M209.9,32.1 L209.9,7.3 L215.3,7.3 L215.3,32.1 L209.9,32.1 L209.9,32.1 Z" id="Shape" sketch:type="MSShapeGroup"></path>
            <path d="M221.5,32.1 L221.5,7.3 L226.9,7.3 L226.9,10.6 C227.8,9.5 229.1,8.6 230.6,7.8 C232.2,7 233.8,6.6 235.7,6.6 C238.3,6.6 240.3,7.3 241.7,8.7 C243,10.1 243.7,12 243.7,14.6 L243.7,32.1 L238.3,32.1 L238.3,16.6 C238.3,14.7 237.9,13.4 237,12.6 C236.1,11.8 234.9,11.4 233.3,11.4 C232,11.4 230.8,11.7 229.7,12.3 C228.6,12.9 227.6,13.7 226.9,14.6 L226.9,32 L221.5,32.1 L221.5,32.1 Z" id="Shape" sketch:type="MSShapeGroup"></path>
            <path d="M247.9,12 L247.9,7.3 L252,7.3 L252,1.1 L257.4,0.5 L257.4,7.3 L262.4,7.3 L262.4,12 L257.4,12 L257.4,25 C257.4,25.9 257.6,26.6 258,27.2 C258.4,27.7 259,28 259.8,28 C260.3,28 260.7,27.9 261.2,27.7 C261.6,27.5 262,27.3 262.2,27 L263.5,31.1 C262.3,32.2 260.6,32.7 258.5,32.7 C256.4,32.7 254.8,32.2 253.7,31 C252.6,29.9 252.1,28.3 252.1,26.2 L252.1,12 L247.9,12 L247.9,12 Z" id="Shape" sketch:type="MSShapeGroup"></path>
        </g>
    </g>
</svg>